<svg id="Слой_1" data-name="Слой 1" xmlns="http://www.w3.org/2000/svg" viewBox="0 0 85.94 120.46"><defs><style>.cls-1{fill:#51b88b;}.cls-2{fill:#fff;}.cls-3{fill:none;stroke:#444;stroke-width:5px;}.cls-3,.cls-4{stroke-miterlimit:10;}.cls-4{stroke:#000;}.cls-5{fill:#9b5c8f;fill-rule:evenodd;}</style></defs><polygon class="cls-1" points="0 120.46 6.3 26.81 79.83 26.81 85.94 120.46 0 120.46"/><circle class="cls-2" cx="61.68" cy="37.17" r="4.5"/><circle class="cls-2" cx="24.76" cy="37.17" r="4.5"/><path class="cls-3" d="M45.34,40.71V23.93a18.91,18.91,0,0,1,37.82,0V40.71" transform="translate(-21.03 -2.52)"/><line class="cls-4" x1="42.97" y1="71.18" x2="42.97" y2="77.3"/><line class="cls-4" x1="39.92" y1="74.24" x2="46.03" y2="74.24"/><path d="M51.94,89.63h8.61v.69H52.73v5.15h7.36v.69H52.73v5.65h7.91v.69h-8.7Zm9.39,0h.91l4.06,5.66,4.14-5.66,5.64-7.18L66.82,95.89l4.77,6.61h-1l-4.34-6-4.36,6H61l4.81-6.62Zm10.6.69v-.69h9.82v.69H77.23V102.5h-.79V90.32Zm-30.77-.69h1L55.76,110l-5.62-7.5L42,90.61l0,11.89h-.79Zm40.51,12a.29.29,0,1,1,.28-.29A.28.28,0,0,1,81.67,101.61Zm.78-.76h.42a.38.38,0,0,0,.42.38c.27,0,.43-.16.43-.47v-2h.43v2a.8.8,0,0,1-.86.88.77.77,0,0,1-.84-.79Zm2.26,0h.43c0,.26.29.43.66.43s.6-.18.6-.43-.16-.34-.53-.42l-.36-.09c-.5-.12-.73-.36-.73-.77s.41-.82,1-.82a.9.9,0,0,1,1,.8h-.42a.52.52,0,0,0-.58-.42c-.34,0-.57.17-.57.42s.15.31.51.39l.3.08c.57.13.81.36.81.78s-.41.86-1.07.86-1-.32-1.06-.81Z" transform="translate(-21.03 -2.52)"/><path class="cls-5" d="M35.51,54.64H52.28a1.91,1.91,0,0,1,1.92,1.92V63a1.92,1.92,0,0,1-1.92,1.92h-6l.83,2-3.63-2H35.52A1.92,1.92,0,0,1,33.6,63V56.56A1.91,1.91,0,0,1,35.51,54.64Z" transform="translate(-21.03 -2.52)"/><path class="cls-2" d="M34.63,56.38a.65.65,0,0,1,.53-.26.61.61,0,0,1,.73.6c.26,1.76.55,3.25.85,4.47l1.85-3.51a.76.76,0,0,1,.63-.5c.37,0,.59.21.69.71a15.38,15.38,0,0,0,.8,2.87,13.12,13.12,0,0,1,1.11-4.63.65.65,0,0,1,.55-.37.78.78,0,0,1,.53.17.7.7,0,0,1,.27.48.82.82,0,0,1-.09.41,10.06,10.06,0,0,0-.82,3,15.61,15.61,0,0,0-.23,3.2,1,1,0,0,1-.1.56.53.53,0,0,1-.45.3.82.82,0,0,1-.66-.31A8.18,8.18,0,0,1,39,60c-.55,1.08-1,1.89-1.22,2.43-.49.95-.91,1.44-1.27,1.46s-.42-.17-.59-.58a36.57,36.57,0,0,1-1.39-6.39A.75.75,0,0,1,34.63,56.38Z" transform="translate(-21.03 -2.52)"/><path class="cls-2" d="M52.73,57.7a2,2,0,0,0-1.35-1,2.48,2.48,0,0,0-.45,0,2.26,2.26,0,0,0-2,1.27,4.41,4.41,0,0,0-.66,2.37A3.28,3.28,0,0,0,48.7,62a2.09,2.09,0,0,0,1.8,1,2.26,2.26,0,0,0,2-1.26,4.46,4.46,0,0,0,.65-2.38,3.17,3.17,0,0,0-.4-1.66ZM51.67,60A2.26,2.26,0,0,1,51,61.28a.81.81,0,0,1-.68.27c-.2,0-.37-.22-.5-.55a2.15,2.15,0,0,1-.15-.77,3,3,0,0,1,.06-.61,2.69,2.69,0,0,1,.44-1c.28-.41.58-.58.88-.52s.37.21.5.54a2.19,2.19,0,0,1,.15.77,4,4,0,0,1-.06.62Z" transform="translate(-21.03 -2.52)"/><path class="cls-2" d="M47.45,57.7a2,2,0,0,0-1.35-1,2.48,2.48,0,0,0-.45,0,2.26,2.26,0,0,0-2,1.27A4.41,4.41,0,0,0,43,60.31,3.28,3.28,0,0,0,43.42,62a1.91,1.91,0,0,0,1.35,1,1.82,1.82,0,0,0,.45,0,2.26,2.26,0,0,0,2-1.26,4.47,4.47,0,0,0,.66-2.38,3.17,3.17,0,0,0-.41-1.66ZM46.39,60a2.26,2.26,0,0,1-.64,1.25.81.81,0,0,1-.68.27c-.2,0-.37-.22-.5-.55a2.15,2.15,0,0,1-.15-.77,3,3,0,0,1,.06-.61,2.71,2.71,0,0,1,.45-1c.27-.41.57-.58.87-.52s.37.21.5.54a2.19,2.19,0,0,1,.15.77,3,3,0,0,1-.06.62Z" transform="translate(-21.03 -2.52)"/><path d="M56.33,57.62a2.86,2.86,0,0,0-.85,2.13A3.06,3.06,0,0,0,56.32,62a3.09,3.09,0,0,0,3,.71V61.33a3,3,0,0,1-.76.13A1.39,1.39,0,0,1,57.54,61a2,2,0,0,1,0-2.4,1.27,1.27,0,0,1,1-.46,3.27,3.27,0,0,1,.84.12V56.91a3.29,3.29,0,0,0-.91-.11A2.87,2.87,0,0,0,56.33,57.62Zm5.84-.83a2.25,2.25,0,0,0-1.82.78,3.2,3.2,0,0,0-.65,2.16,3.58,3.58,0,0,0,.65,2.3,2.29,2.29,0,0,0,1.89.8,2.23,2.23,0,0,0,1.84-.8,3.47,3.47,0,0,0,.65-2.24,3.34,3.34,0,0,0-.66-2.22A2.36,2.36,0,0,0,62.17,56.79Zm.66,4.38a.74.74,0,0,1-.66.35.7.7,0,0,1-.62-.35,3.18,3.18,0,0,1-.21-1.42c0-1.11.28-1.65.85-1.65s.89.55.89,1.67A2.88,2.88,0,0,1,62.83,61.17ZM68.89,57l-.31,1.29c-.07.33-.15.66-.21,1l-.17.89c-.16-.89-.38-2-.66-3.19h-2l-.74,5.73h1.47l.4-3.94,1,3.94h1l1-3.94.41,3.94h1.54L70.89,57Zm7,0-.3,1.29c-.08.33-.15.66-.22,1l-.17.89c-.16-.89-.38-2-.66-3.19h-2l-.73,5.73h1.46l.4-3.94,1,3.94h1l1-3.94.41,3.94h1.53L77.9,57Zm4.77,3.47H82V59.23H80.67v-1h1.58V57H79.12v5.73h3.14V61.47H80.67Zm6-.91a1.52,1.52,0,0,0,.24-.81,1.51,1.51,0,0,0-.63-1.28A2.85,2.85,0,0,0,84.51,57H82.7v5.73h1.55V60.07h0l1.25,2.61h1.64L85.93,60.1A1.53,1.53,0,0,0,86.62,59.51Zm-2.38-.09V58.05a1.42,1.42,0,0,1,.8.19.65.65,0,0,1,.23.57C85.27,59.21,84.93,59.41,84.24,59.42Zm3.53-1.8a2.89,2.89,0,0,0-.84,2.13A3.09,3.09,0,0,0,87.76,62a3.11,3.11,0,0,0,3.06.71V61.33a3,3,0,0,1-.77.13A1.37,1.37,0,0,1,89,61a2,2,0,0,1,0-2.4,1.25,1.25,0,0,1,1-.46,3.27,3.27,0,0,1,.84.12V56.91a3.36,3.36,0,0,0-.92-.11A2.9,2.9,0,0,0,87.77,57.62Zm5,3.84V60.41h1.37V59.22H92.8v-1h1.59V57H91.26v5.73H94.4V61.46Z" transform="translate(-21.03 -2.52)"/></svg>