<svg id="Слой_1" data-name="Слой 1" xmlns="http://www.w3.org/2000/svg" xmlns:xlink="http://www.w3.org/1999/xlink" viewBox="0 0 85.94 120.46"><defs><style>.cls-1{fill:#51b88b;}.cls-2{fill:#fff;}.cls-3{fill:none;stroke:#444;stroke-width:5px;}.cls-3,.cls-4{stroke-miterlimit:10;}.cls-4{stroke:#000;}</style></defs><polygon class="cls-1" points="0 120.46 6.3 26.81 79.83 26.81 85.94 120.46 0 120.46"/><circle class="cls-2" cx="61.68" cy="37.17" r="4.5"/><circle class="cls-2" cx="24.76" cy="37.17" r="4.5"/><path class="cls-3" d="M45.34,40.71V23.93a18.91,18.91,0,0,1,37.82,0V40.71" transform="translate(-21.03 -2.52)"/><image width="1267" height="1267" transform="translate(18.68 31.48) scale(0.04)" xlink:href="woocommerce-nextjs1.png"/><line class="cls-4" x1="42.97" y1="71.18" x2="42.97" y2="77.3"/><line class="cls-4" x1="39.92" y1="74.24" x2="46.03" y2="74.24"/><path d="M51.94,89.63h8.61v.69H52.73v5.15h7.36v.69H52.73v5.65h7.91v.69h-8.7Zm9.39,0h.91l4.06,5.66,4.14-5.66,5.64-7.18L66.82,95.89l4.77,6.61h-1l-4.34-6-4.36,6H61l4.81-6.62Zm10.6.69v-.69h9.82v.69H77.23V102.5h-.79V90.32Zm-30.77-.69h1L55.76,110l-5.62-7.5L42,90.61l0,11.89h-.79Zm40.51,12a.29.29,0,1,1,.28-.29A.28.28,0,0,1,81.67,101.61Zm.78-.76h.42a.38.38,0,0,0,.42.38c.27,0,.43-.16.43-.47v-2h.43v2a.8.8,0,0,1-.86.88.77.77,0,0,1-.84-.79Zm2.26,0h.43c0,.26.29.43.66.43s.6-.18.6-.43-.16-.34-.53-.42l-.36-.09c-.5-.12-.73-.36-.73-.77s.41-.82,1-.82a.9.9,0,0,1,1,.8h-.42a.52.52,0,0,0-.58-.42c-.34,0-.57.17-.57.42s.15.31.51.39l.3.08c.57.13.81.36.81.78s-.41.86-1.07.86-1-.32-1.06-.81Z" transform="translate(-21.03 -2.52)"/></svg>